# xmcd
#
# Track frame offsets:
#  150
#  21815
#  48956
#  77693
#  98501
#
# Disc length: 1605 seconds
#
# Revision: 0
# Processed by: cddbd v1.5.1PL0 Copyright (c) Steve Scherf et al.
# Submitted via: Collectorz.com Music Collector 6.9
#
DISCID=2b064305
DTITLE=joe ely - House Of Blues, Nov 28th 1995 - Disc 2
DYEAR=1995
DGENRE=
TTITLE0=Settle For Love
TTITLE1=My Eyes Got Lucky
TTITLE2=I'm A Thousand Miles From Home
TTITLE3=All Just To Get To You
TTITLE4=Not Fade Away
EXTD=
EXTT0=
EXTT1=
EXTT2=
EXTT3=
EXTT4=
PLAYORDER=
